<svg width="250" height="250" viewBox="0 0 250 250" fill="none" xmlns="http://www.w3.org/2000/svg">
<path d="M148.7 163.9C190.4 163.9 224.2 130.1 224.2 88.4C224.2 46.7 190.4 13 148.7 13C107 13 73.3 46.7 73.3 88.4C73.3 130.1 107.1 163.9 148.7 163.9Z" fill="#FEC800"/>
<path d="M58 41.5C40.3 41.5 26 55.8 26 73.5V149.3C26 167 40.3 181.3 58 181.3H135.7C153.4 181.3 167.7 167 167.7 149.3V73.5C167.7 55.8 153.4 41.5 135.7 41.5H58Z" fill="#00A5A5"/>
<path d="M163.9 70.3H86.3C68.6 70.3 54.3 84.6 54.3 102.3V178.1C54.3 195.8 68.6 210.1 86.3 210.1H124.1L151.4 236.6C152.2 237.4 153.3 237.8 154.5 237.8C155.1 237.8 155.7 237.7 156.2 237.5C157.8 236.8 158.9 235.2 158.9 233.4V210.1H163.9C181.6 210.1 195.9 195.8 195.9 178.1V102.3C196 84.6 181.6 70.3 163.9 70.3Z" fill="#E94A34"/>
<path d="M151.1 155C149.1 155 147.5 153.4 147.5 151.4V129.1C147.5 121.5 141.4 115.4 133.8 115.4C132.6 115.4 120.1 115.4 120.1 115.4V151.4C120.1 153.4 118.5 155 116.5 155C114.5 155 112.9 153.4 112.9 151.4V129.1C112.9 121.5 106.8 115.4 99.2 115.4C91.6 115.4 85.5 121.5 85.5 129.1V164.2H95.6V129.1C95.6 127.1 97.2 125.5 99.2 125.5C101.2 125.5 102.8 127.1 102.8 129.1V151.4C102.8 159 109 165.1 116.5 165.1C124.1 165.1 130.2 159 130.2 151.4V128.5C130.5 126.8 132 125.4 133.8 125.4C135.8 125.4 137.4 127 137.4 129V151.3C137.4 158.9 143.6 165 151.1 165C158.7 165 164.8 158.9 164.8 151.3V115.4H154.7V151.3C154.7 153.3 153.1 155 151.1 155Z" fill="white"/>
</svg>
